{
  "accessors": [
    {
      "bufferView": 2,
      "componentType": 5126,
      "count": 2048,
      "max": [
        1.1515699625015259,
        1.1515700817108154,
        5.319781303405762
      ],
      "min": [
        -1.8505793809890747,
        -1.1515699625015259,
        0.014097921550273895
      ],
      "type": "VEC3"
    },
    {
      "bufferView": 2,
      "byteOffset": 24576,
      "componentType": 5126,
      "count": 2048,
      "max": [
        1.0,
        1.0,
        1.0
      ],
      "min": [
        -1.0,
        -1.0,
        -1.0
      ],
      "type": "VEC3"
    },
    {
      "bufferView": 3,
      "componentType": 5126,
      "count": 2048,
      "max": [
        1.0,
        1.0,
        1.0,
        1.0
      ],
      "min": [
        -1.0,
        -1.0,
        -0.9916684627532959,
        1.0
      ],
      "type": "VEC4"
    },
    {
      "bufferView": 1,
      "componentType": 5126,
      "count": 2048,
      "max": [
        0.9952360391616821,
        0.9892855882644653
      ],
      "min": [
        0.0008401213563047349,
        0.0024062693119049072
      ],
      "type": "VEC2"
    },
    {
      "bufferView": 0,
      "componentType": 5125,
      "count": 4008,
      "type": "SCALAR"
    }
  ],
  "asset": {
    "extras": {
      "author": "Vova Truskov (https://sketchfab.com/FlowOff)",
      "license": "CC-BY-4.0 (http://creativecommons.org/licenses/by/4.0/)",
      "source": "https://sketchfab.com/3d-models/medieval-lamp-c4817197f15d40668c3df096135ef423",
      "title": "Medieval Lamp"
    },
    "generator": "Sketchfab-12.68.0",
    "version": "2.0"
  },
  "bufferViews": [
    {
      "buffer": 0,
      "byteLength": 16032,
      "name": "floatBufferViews",
      "target": 34963
    },
    {
      "buffer": 0,
      "byteLength": 16384,
      "byteOffset": 16032,
      "byteStride": 8,
      "name": "floatBufferViews",
      "target": 34962
    },
    {
      "buffer": 0,
      "byteLength": 49152,
      "byteOffset": 32416,
      "byteStride": 12,
      "name": "floatBufferViews",
      "target": 34962
    },
    {
      "buffer": 0,
      "byteLength": 32768,
      "byteOffset": 81568,
      "byteStride": 16,
      "name": "floatBufferViews",
      "target": 34962
    }
  ],
  "buffers": [
    {
      "byteLength": 114336,
      "uri": "scene.bin"
    }
  ],
  "images": [
    {
      "uri": "textures/TorchNice_baseColor.png"
    },
    {
      "uri": "textures/TorchNice_metallicRoughness.png"
    },
    {
      "uri": "textures/TorchNice_emissive.png"
    },
    {
      "uri": "textures/TorchNice_normal.png"
    }
  ],
  "materials": [
    {
      "doubleSided": true,
      "emissiveFactor": [
        1.0,
        1.0,
        1.0
      ],
      "emissiveTexture": {
        "index": 2
      },
      "name": "TorchNice",
      "normalTexture": {
        "index": 3
      },
      "pbrMetallicRoughness": {
        "baseColorTexture": {
          "index": 0
        },
        "metallicRoughnessTexture": {
          "index": 1
        },
        "roughnessFactor": 0.4501515243992661
      }
    }
  ],
  "meshes": [
    {
      "name": "Plane006_TorchNice_0",
      "primitives": [
        {
          "attributes": {
            "NORMAL": 1,
            "POSITION": 0,
            "TANGENT": 2,
            "TEXCOORD_0": 3
          },
          "indices": 4,
          "material": 0,
          "mode": 4
        }
      ]
    }
  ],
  "nodes": [
    {
      "children": [
        1
      ],
      "matrix": [
        1.0,
        0.0,
        0.0,
        0.0,
        0.0,
        2.220446049250313e-16,
        -1.0,
        0.0,
        0.0,
        1.0,
        2.220446049250313e-16,
        0.0,
        0.0,
        0.0,
        0.0,
        1.0
      ],
      "name": "Sketchfab_model"
    },
    {
      "children": [
        2
      ],
      "matrix": [
        1.0,
        0.0,
        0.0,
        0.0,
        0.0,
        0.0,
        1.0,
        0.0,
        0.0,
        -1.0,
        0.0,
        0.0,
        0.0,
        0.0,
        0.0,
        1.0
      ],
      "name": "616e0b6c561445ada13673796a4feca2.fbx"
    },
    {
      "children": [
        3
      ],
      "name": "RootNode"
    },
    {
      "children": [
        4
      ],
      "matrix": [
        9.139185271027315e-06,
        0.0,
        -46.938098907469815,
        0.0,
        -46.9380989074692,
        -7.647186973788458e-06,
        -9.13918527623849e-06,
        0.0,
        -7.64718697118287e-06,
        46.938098907470085,
        -1.5008186344091581e-12,
        0.0,
        503.26104736328125,
        0.09880214929580688,
        1.409769058227539,
        1.0
      ],
      "name": "Plane.006"
    },
    {
      "mesh": 0,
      "name": "Plane.006_TorchNice_0"
    }
  ],
  "samplers": [
    {
      "magFilter": 9729,
      "minFilter": 9987,
      "wrapS": 10497,
      "wrapT": 10497
    }
  ],
  "scene": 0,
  "scenes": [
    {
      "name": "Sketchfab_Scene",
      "nodes": [
        0
      ]
    }
  ],
  "textures": [
    {
      "sampler": 0,
      "source": 0
    },
    {
      "sampler": 0,
      "source": 1
    },
    {
      "sampler": 0,
      "source": 2
    },
    {
      "sampler": 0,
      "source": 3
    }
  ]
}
